<svg width="107" height="32" viewBox="0 0 107 32" fill="none" xmlns="http://www.w3.org/2000/svg">
<g id="Capa 2">
<g id="Capa 1">
<path id="Vector" d="M10.2741 0.0105191V2.84732H7.06775C6.41905 2.83723 5.77119 2.89656 5.13619 3.0242C4.71659 3.11002 4.32421 3.29015 3.9913 3.54978C3.69816 3.80095 3.4856 4.12698 3.37847 4.48976C3.20486 5.07502 3.12551 5.6823 3.14317 6.29056V13.7869H10.0265V16.6253H3.13966V31.5724H0V7.0065C0 6.52303 0.00877981 6.02608 0.0228275 5.51398V5.49545C0.0519755 4.97019 0.124787 4.448 0.240567 3.93386C0.359053 3.41269 0.559162 2.91174 0.834082 2.44808C1.1284 1.9416 1.53187 1.50113 2.0176 1.15602C2.58613 0.761962 3.22809 0.476048 3.90877 0.31374C4.78631 0.10181 5.68879 -0.000112896 6.59364 0.0105191H10.2741Z" fill="#294122"/>
<path id="Vector_2" d="M92.374 0.0107422V31.5727H89.2361V14.4373C89.257 12.9423 89.08 11.4508 88.7094 9.9985C88.4321 8.85522 87.9819 7.75704 87.3731 6.73887C86.8608 5.89414 86.1981 5.14211 85.4152 4.51694C84.988 4.17468 84.5303 3.86915 84.0473 3.60391V31.5727H80.9023V0.0107422H83.0903L83.1956 0.0427488C83.9618 0.27144 84.7001 0.578681 85.3976 0.95915H85.4064H85.4152C86.1312 1.32765 86.802 1.77176 87.4152 2.28321C88.055 2.79263 88.6323 3.37022 89.1361 4.00483C89.1641 4.03853 89.1887 4.0739 89.2168 4.10928V0.0107422H92.374Z" fill="#294122"/>
<path id="Vector_3" d="M102.15 0.0107422C100.643 0.0107422 99.3874 0.20952 98.4409 0.674459C98.0167 0.873647 97.6217 1.1257 97.2662 1.42409C96.9267 1.70637 96.6353 2.03772 96.4023 2.40619V2.41798C95.9832 3.13195 95.736 3.92683 95.6788 4.74436C95.6156 5.51252 95.584 6.26664 95.584 7.00672V31.5727H98.7236V19.0362H103.556V31.5777H106.694V0.0107422H102.15ZM103.554 16.1926H98.7184V6.29247C98.7003 5.68407 98.7802 5.07665 98.9554 4.49167C99.0604 4.12917 99.2712 3.80302 99.563 3.55169C99.9036 3.29093 100.305 3.11293 100.732 3.03284C101.367 2.90389 102.015 2.84399 102.664 2.85428H103.542L103.554 16.1926Z" fill="#294122"/>
<path id="Vector_4" d="M62.5893 13.2832C62.8616 12.8086 63.0581 12.2975 63.1723 11.767C63.3022 11.1659 63.3651 10.5532 63.3602 9.9393V0.0105039H58.4821C57.5829 -0.00542641 56.6852 0.0896896 55.8113 0.29351C55.1285 0.45813 54.4852 0.747545 53.9166 1.1459C53.4304 1.49094 53.0263 1.9314 52.7313 2.43795C52.4556 2.90122 52.2554 3.4023 52.1378 3.92374C52.0223 4.43798 51.9489 4.9601 51.9183 5.48532V5.50385C51.9031 6.01596 51.8955 6.51347 51.8955 6.99637V31.5724H56.7946C57.6875 31.5892 58.5789 31.494 59.4461 31.2894H59.462C60.1292 31.1115 60.7603 30.8268 61.3285 30.4471C61.826 30.1105 62.2373 29.6699 62.5314 29.1584C62.7998 28.6933 62.9967 28.1935 63.1161 27.6743C63.1169 27.6716 63.1169 27.6687 63.1161 27.6659C63.2462 27.1479 63.3197 26.6184 63.3356 26.0858C63.3508 25.5737 63.359 25.0762 63.3602 24.5933V19.2044C63.3696 18.5617 63.2947 17.9205 63.1372 17.2958C63.1378 17.2902 63.1378 17.2845 63.1372 17.2789C63.0218 16.7683 62.8314 16.276 62.5718 15.8167C62.345 15.4186 62.056 15.0561 61.7148 14.742C61.6657 14.6965 61.613 14.6527 61.5621 14.6072C61.9709 14.2194 62.3181 13.7761 62.5928 13.2916L62.5893 13.2832ZM60.2293 25.2688C60.2471 25.8771 60.1678 26.4844 59.994 27.0696C59.8804 27.442 59.6594 27.776 59.3566 28.0332L59.3461 28.0416C59.0198 28.3016 58.6312 28.4793 58.2152 28.5587C57.5869 28.6876 56.9453 28.747 56.303 28.7356H55.0387V15.9549H57.569C58.5541 15.9549 59.1634 16.2261 59.5445 16.6607C59.9431 17.102 60.2275 17.9595 60.2275 19.4133L60.2293 25.2688ZM60.2293 9.64956C60.2293 10.9349 59.9694 11.7974 59.5568 12.3449C59.188 12.825 58.5805 13.1231 57.5655 13.1231H55.0264V6.29223C55.0087 5.68397 55.0881 5.07669 55.2617 4.49143C55.3694 4.12849 55.5826 3.80246 55.8763 3.55145C56.2156 3.29176 56.6148 3.11384 57.0405 3.0326C57.67 2.90405 58.3127 2.84415 58.9562 2.85404H60.2293V9.64956Z" fill="#294122"/>
<path id="Vector_5" d="M72.9321 0.0107422C71.4254 0.0107422 70.1664 0.20952 69.2235 0.669405C68.7992 0.868593 68.4042 1.12065 68.0487 1.41903C67.7115 1.70284 67.4224 2.03532 67.1918 2.4045V2.41629C66.7722 3.13015 66.5244 3.92502 66.4666 4.74267C66.4057 5.51083 66.3747 6.26495 66.3735 7.00504V31.5727H69.5009V19.0362H74.3333V31.5777H77.4712V0.0107422H72.9321ZM74.3368 16.1926H69.5009V6.29247C69.4832 5.68421 69.5626 5.07693 69.7362 4.49167C69.8433 4.12889 70.0559 3.80286 70.349 3.55169C70.6888 3.29164 71.0886 3.1137 71.515 3.03284C72.1498 2.90389 72.7978 2.84399 73.4466 2.85428H74.3245L74.3368 16.1926Z" fill="#294122"/>
<path id="Vector_6" d="M49.9745 30.7234C49.793 29.9743 49.6274 29.2893 49.4776 28.6682C49.3277 28.0472 49.1521 27.324 48.9508 26.4985C48.7541 25.6899 48.5504 24.8522 48.3397 23.9852C48.129 23.1182 47.9183 22.2445 47.7075 21.364C47.4968 20.4846 47.3013 19.6766 47.1211 18.9399C46.9408 18.2032 46.7857 17.5558 46.6557 16.9976C46.5785 16.6326 46.5123 16.3333 46.4573 16.0997C46.9509 15.4284 47.3672 14.7077 47.6988 13.9502C48.1203 12.9657 48.4356 11.9423 48.64 10.8961C48.9015 9.63884 49.0774 8.36655 49.1668 7.08734C49.2288 6.3832 49.2745 5.63694 49.3037 4.84856C49.333 4.06019 49.3517 3.23026 49.3599 2.35878V0.0105049H44.5047C43.606 -0.00543027 42.7089 0.0896869 41.8356 0.293511C41.1523 0.458287 40.5085 0.747679 39.9392 1.1459C39.4534 1.49101 39.05 1.93148 38.7556 2.43796C38.4807 2.90162 38.2806 3.40256 38.1621 3.92374C38.0405 4.44078 37.9624 4.96637 37.9286 5.49543V5.51396C37.9145 6.01933 37.9058 6.5247 37.9058 7.00648V31.5724H41.0226V20.0702C41.6455 19.8124 42.2539 19.5234 42.8453 19.2044H42.8558C43.207 19.0056 43.5424 18.7962 43.862 18.576L46.7505 31.0418L46.877 31.5842H50.1712L49.9745 30.7234ZM46.222 4.19158C46.2378 5.74319 46.1345 7.2938 45.913 8.83086C45.8111 9.47998 45.694 10.0791 45.5618 10.6283C45.4387 11.1358 45.2881 11.6368 45.1105 12.1292C44.8385 12.9046 44.4587 13.6412 43.9814 14.3192C43.6133 14.8393 43.1772 15.312 42.6837 15.7258C42.2827 16.0675 41.8406 16.3621 41.3668 16.6034L41.0366 16.7533V6.29223C41.0167 5.68431 41.0937 5.07705 41.2649 4.49143C41.372 4.12865 41.5846 3.80262 41.8778 3.55145C42.217 3.29165 42.6162 3.11372 43.042 3.03261C43.6695 2.90213 44.3104 2.83997 44.9524 2.8473H46.2185L46.222 4.19158Z" fill="#294122"/>
<path id="Vector_7" d="M22.6942 28.7352V31.572H12.3516V6.56978C12.3516 6.08632 12.3516 0.513791 12.3744 0.0168462V5.69931e-07H12.8906C13.232 -0.000220916 13.57 0.0641151 13.8854 0.189329C14.2009 0.314543 14.4874 0.498179 14.7288 0.729733C14.9702 0.961287 15.1616 1.23622 15.2921 1.5388C15.4226 1.84138 15.4897 2.16568 15.4895 2.49315V28.7352H22.6942Z" fill="#294122"/>
<path id="Vector_8" d="M34.7963 0.0107422V25.205C34.7981 26.018 34.7181 26.8292 34.5575 27.6274C34.4058 28.4081 34.0949 29.1523 33.6426 29.8173C33.1885 30.4859 32.565 31.0331 31.8305 31.4076C31.0473 31.8102 30.1008 31.9887 29.0209 31.9887C28.095 32.0198 27.1751 31.8354 26.3396 31.4514H26.3273C25.6128 31.0825 25.0005 30.5552 24.5415 29.9134V29.9033C24.0989 29.2432 23.7886 28.5096 23.6266 27.7403C23.4464 26.9092 23.3575 26.0623 23.3615 25.2134V0.0107422H23.6828C24.4301 0.0111885 25.1467 0.296187 25.6751 0.803136C26.2036 1.31008 26.5006 1.99753 26.5011 2.71446V25.9193C26.4996 26.3685 26.5461 26.8167 26.6398 27.2568C26.7335 27.6185 26.8876 27.9633 27.0964 28.2777C27.3036 28.5479 27.572 28.7697 27.8813 28.9262C28.2669 29.1033 28.6921 29.1867 29.1193 29.1688C29.5236 29.1842 29.926 29.108 30.294 28.9464C30.5975 28.7947 30.8574 28.5737 31.0508 28.3029C31.2682 27.989 31.4241 27.6396 31.5109 27.272C31.6209 26.8306 31.6751 26.3781 31.6724 25.9243V0.0107422H34.7963Z" fill="#294122"/>
</g>
</g>
</svg>
